<svg xmlns="http://www.w3.org/2000/svg" version="1.1" viewBox="0.4689268469810486 0.5687022805213928 517.5310668945312 426.4217224121094" width="518.00" height="428.00">
<g stroke-width="2.00" fill="none" stroke-linecap="butt">
<path stroke="#ec9c50" stroke-opacity="0.992" d="&#xA;  M 369.44 28.21&#xA;  Q 338.02 25.90 321.25 25.66&#xA;  C 287.21 25.15 260.54 24.67 229.49 18.29"/>
<path stroke="#b96a53" stroke-opacity="0.992" d="&#xA;  M 229.49 18.29&#xA;  Q 217.71 4.50 199.73 1.17"/>
<path stroke="#b76154" stroke-opacity="0.992" d="&#xA;  M 229.49 18.29&#xA;  Q 237.33 28.19 242.73 39.78"/>
<path stroke="#553557" stroke-opacity="0.992" d="&#xA;  M 242.73 39.78&#xA;  Q 242.32 39.56 241.97 39.99"/>
<path stroke="#7a3158" stroke-opacity="0.992" d="&#xA;  M 230.00 65.72&#xA;  Q 205.32 73.42 195.28 77.75&#xA;  Q 167.82 89.60 132.58 101.15&#xA;  Q 121.89 104.66 107.25 111.64"/>
<path stroke="#e98b50" stroke-opacity="0.992" d="&#xA;  M 392.55 71.33&#xA;  Q 371.18 67.36 349.62 66.16&#xA;  C 337.44 65.48 325.13 64.97 313.11 63.99&#xA;  Q 282.98 61.53 252.72 59.19"/>
<path stroke="#886753" stroke-opacity="0.992" d="&#xA;  M 242.78 39.91&#xA;  Q 242.76 39.84 242.73 39.78"/>
<path stroke="#e87d50" stroke-opacity="0.992" d="&#xA;  M 422.77 136.50&#xA;  C 405.44 134.25 393.23 122.90 377.61 115.71&#xA;  Q 366.89 110.78 354.23 107.26&#xA;  C 326.25 99.48 297.65 93.25 268.74 91.27"/>
<path stroke="#603657" stroke-opacity="0.992" d="&#xA;  M 222.13 82.17&#xA;  Q 174.35 108.05 123.22 125.78&#xA;  Q 110.38 130.23 97.15 133.23"/>
<path stroke="#423956" stroke-opacity="0.992" d="&#xA;  M 151.87 197.55&#xA;  Q 127.11 206.73 103.46 218.10&#xA;  C 83.57 227.66 65.95 239.23 45.26 246.69"/>
<path stroke="#e7714f" stroke-opacity="0.992" d="&#xA;  M 458.05 213.69&#xA;  C 445.84 207.79 435.53 200.06 424.49 192.27&#xA;  C 412.11 183.53 397.20 174.59 387.17 168.05&#xA;  C 369.50 156.53 353.30 148.46 335.86 141.95&#xA;  C 318.98 135.65 301.92 130.08 284.96 123.88"/>
<path stroke="#e6664f" stroke-opacity="0.992" d="&#xA;  M 497.23 413.60&#xA;  Q 492.53 392.49 484.50 370.43&#xA;  Q 472.35 337.02 457.98 309.48&#xA;  C 449.62 293.46 440.75 278.02 428.77 264.84&#xA;  Q 422.93 258.41 411.15 248.91&#xA;  C 402.68 242.07 392.76 232.01 383.59 225.03&#xA;  C 363.62 209.85 340.76 198.43 317.34 190.06"/>
<path stroke="#e45a50" stroke-opacity="0.992" d="&#xA;  M 456.70 426.92&#xA;  Q 456.34 409.67 449.79 393.85&#xA;  Q 448.22 390.06 440.87 375.57&#xA;  Q 435.15 364.28 431.20 357.68&#xA;  Q 415.02 330.58 399.28 302.94"/>
<path stroke="#2d3b56" stroke-opacity="0.992" d="&#xA;  M 133.11 228.17&#xA;  C 114.74 237.45 100.49 246.72 84.53 256.77&#xA;  C 67.30 267.62 49.44 274.63 30.11 280.71"/>
<path stroke="#373a57" stroke-opacity="0.996" d="&#xA;  M 112.89 297.25&#xA;  C 95.04 327.02 77.65 361.46 80.69 397.39&#xA;  Q 81.62 408.39 85.09 421.79"/>
<path stroke="#eb9350" stroke-opacity="0.992" d="&#xA;  M 315.77 326.23&#xA;  Q 302.21 323.16 294.91 320.08&#xA;  C 270.91 309.97 255.41 301.55 233.10 303.47&#xA;  C 219.88 304.60 206.88 308.37 194.18 311.75"/>
<path stroke="#653557" stroke-opacity="0.996" d="&#xA;  M 127.80 333.60&#xA;  Q 127.43 340.65 128.03 345.56&#xA;  C 130.00 361.74 142.02 370.77 156.86 375.15"/>
<path stroke="#e56a50" stroke-opacity="0.992" d="&#xA;  M 357.58 342.59&#xA;  C 332.53 351.92 299.23 338.52 277.68 325.73&#xA;  Q 271.38 322.00 264.99 318.34"/>
<path stroke="#d06c4f" stroke-opacity="0.992" d="&#xA;  M 224.80 316.13&#xA;  C 208.24 322.40 192.97 324.07 175.26 324.28"/>
<path stroke="#9e4253" stroke-opacity="0.992" d="&#xA;  M 178.99 355.24&#xA;  Q 172.52 356.39 164.99 353.44&#xA;  Q 153.34 348.86 142.89 340.05&#xA;  A 1.56 1.56 0.0 0 1 142.47 338.21&#xA;  Q 143.01 337.00 145.68 336.31"/>
</g>
<path fill="#eda44f" fill-opacity="0.992" d="&#xA;  M 369.44 28.21&#xA;  Q 338.02 25.90 321.25 25.66&#xA;  C 287.21 25.15 260.54 24.67 229.49 18.29&#xA;  Q 217.71 4.50 199.73 1.17&#xA;  Q 202.19 1.05 204.50 1.05&#xA;  Q 256.64 0.90 312.00 0.57&#xA;  C 334.16 0.43 355.08 11.63 369.44 28.21&#xA;  Z"/>
<path fill="#842f57" fill-opacity="0.992" d="&#xA;  M 199.73 1.17&#xA;  Q 217.71 4.50 229.49 18.29&#xA;  Q 237.33 28.19 242.73 39.78&#xA;  Q 242.32 39.56 241.97 39.99&#xA;  L 230.00 65.72&#xA;  Q 205.32 73.42 195.28 77.75&#xA;  Q 167.82 89.60 132.58 101.15&#xA;  Q 121.89 104.66 107.25 111.64&#xA;  Q 116.04 93.05 119.01 86.51&#xA;  Q 125.81 71.53 128.14 66.68&#xA;  Q 131.16 60.40 133.65 54.69&#xA;  Q 137.16 46.68 139.22 42.72&#xA;  Q 146.05 29.60 156.83 19.82&#xA;  Q 170.84 7.12 188.58 2.39&#xA;  Q 194.23 0.88 199.73 1.17&#xA;  Z"/>
<path fill="#ea9350" fill-opacity="0.992" d="&#xA;  M 369.44 28.21&#xA;  Q 376.34 36.14 378.79 41.46&#xA;  Q 385.62 56.33 392.55 71.33&#xA;  Q 371.18 67.36 349.62 66.16&#xA;  C 337.44 65.48 325.13 64.97 313.11 63.99&#xA;  Q 282.98 61.53 252.72 59.19&#xA;  Q 249.09 52.26 245.77 44.96&#xA;  C 244.89 43.03 244.89 41.38 242.78 39.91&#xA;  Q 242.76 39.84 242.73 39.78&#xA;  Q 237.33 28.19 229.49 18.29&#xA;  C 260.54 24.67 287.21 25.15 321.25 25.66&#xA;  Q 338.02 25.90 369.44 28.21&#xA;  Z"/>
<path fill="#263b56" fill-opacity="0.992" d="&#xA;  M 242.73 39.78&#xA;  Q 242.76 39.84 242.78 39.91&#xA;  L 241.97 39.99&#xA;  Q 242.32 39.56 242.73 39.78&#xA;  Z"/>
<path fill="#e88250" fill-opacity="0.992" d="&#xA;  M 392.55 71.33&#xA;  L 422.77 136.50&#xA;  C 405.44 134.25 393.23 122.90 377.61 115.71&#xA;  Q 366.89 110.78 354.23 107.26&#xA;  C 326.25 99.48 297.65 93.25 268.74 91.27&#xA;  L 252.72 59.19&#xA;  Q 282.98 61.53 313.11 63.99&#xA;  C 325.13 64.97 337.44 65.48 349.62 66.16&#xA;  Q 371.18 67.36 392.55 71.33&#xA;  Z"/>
<path fill="#6f3358" fill-opacity="0.992" d="&#xA;  M 230.00 65.72&#xA;  L 222.13 82.17&#xA;  Q 174.35 108.05 123.22 125.78&#xA;  Q 110.38 130.23 97.15 133.23&#xA;  L 107.25 111.64&#xA;  Q 121.89 104.66 132.58 101.15&#xA;  Q 167.82 89.60 195.28 77.75&#xA;  Q 205.32 73.42 230.00 65.72&#xA;  Z"/>
<path fill="#513856" fill-opacity="0.992" d="&#xA;  M 222.13 82.17&#xA;  L 182.51 162.14&#xA;  A 9.52 9.45 82.7 0 1 180.24 165.10&#xA;  Q 164.06 179.20 151.87 197.55&#xA;  Q 127.11 206.73 103.46 218.10&#xA;  C 83.57 227.66 65.95 239.23 45.26 246.69&#xA;  L 97.15 133.23&#xA;  Q 110.38 130.23 123.22 125.78&#xA;  Q 174.35 108.05 222.13 82.17&#xA;  Z"/>
<path fill="#e7774f" fill-opacity="0.992" d="&#xA;  M 422.77 136.50&#xA;  L 458.05 213.69&#xA;  C 445.84 207.79 435.53 200.06 424.49 192.27&#xA;  C 412.11 183.53 397.20 174.59 387.17 168.05&#xA;  C 369.50 156.53 353.30 148.46 335.86 141.95&#xA;  C 318.98 135.65 301.92 130.08 284.96 123.88&#xA;  L 268.74 91.27&#xA;  C 297.65 93.25 326.25 99.48 354.23 107.26&#xA;  Q 366.89 110.78 377.61 115.71&#xA;  C 393.23 122.90 405.44 134.25 422.77 136.50&#xA;  Z"/>
<path fill="#e66a4f" fill-opacity="0.992" d="&#xA;  M 458.05 213.69&#xA;  C 471.20 242.14 481.46 265.53 496.83 299.39&#xA;  Q 505.59 318.68 508.72 326.53&#xA;  Q 510.93 332.10 514.44 343.80&#xA;  Q 516.54 350.78 518.00 361.65&#xA;  L 518.00 371.15&#xA;  Q 517.52 374.07 517.18 377.00&#xA;  Q 516.81 380.25 516.07 382.77&#xA;  Q 515.24 385.61 514.35 388.42&#xA;  Q 509.54 403.46 497.23 413.60&#xA;  Q 492.53 392.49 484.50 370.43&#xA;  Q 472.35 337.02 457.98 309.48&#xA;  C 449.62 293.46 440.75 278.02 428.77 264.84&#xA;  Q 422.93 258.41 411.15 248.91&#xA;  C 402.68 242.07 392.76 232.01 383.59 225.03&#xA;  C 363.62 209.85 340.76 198.43 317.34 190.06&#xA;  L 284.96 123.88&#xA;  C 301.92 130.08 318.98 135.65 335.86 141.95&#xA;  C 353.30 148.46 369.50 156.53 387.17 168.05&#xA;  C 397.20 174.59 412.11 183.53 424.49 192.27&#xA;  C 435.53 200.06 445.84 207.79 458.05 213.69&#xA;  Z"/>
<path fill="#e5614f" fill-opacity="0.992" d="&#xA;  M 497.23 413.60&#xA;  C 489.89 419.87 480.42 423.72 470.98 425.70&#xA;  C 469.25 426.07 466.93 426.04 464.57 426.48&#xA;  Q 460.79 427.18 456.70 426.92&#xA;  Q 456.34 409.67 449.79 393.85&#xA;  Q 448.22 390.06 440.87 375.57&#xA;  Q 435.15 364.28 431.20 357.68&#xA;  Q 415.02 330.58 399.28 302.94&#xA;  Q 398.83 289.21 392.91 277.05&#xA;  C 387.15 265.24 379.09 253.96 369.41 244.27&#xA;  Q 352.69 227.52 331.64 214.83&#xA;  C 329.22 213.37 327.66 211.33 326.33 208.61&#xA;  Q 321.77 199.28 317.34 190.06&#xA;  C 340.76 198.43 363.62 209.85 383.59 225.03&#xA;  C 392.76 232.01 402.68 242.07 411.15 248.91&#xA;  Q 422.93 258.41 428.77 264.84&#xA;  C 440.75 278.02 449.62 293.46 457.98 309.48&#xA;  Q 472.35 337.02 484.50 370.43&#xA;  Q 492.53 392.49 497.23 413.60&#xA;  Z"/>
<path fill="#333a56" fill-opacity="0.992" d="&#xA;  M 151.87 197.55&#xA;  Q 141.45 212.48 133.11 228.17&#xA;  C 114.74 237.45 100.49 246.72 84.53 256.77&#xA;  C 67.30 267.62 49.44 274.63 30.11 280.71&#xA;  L 45.26 246.69&#xA;  C 65.95 239.23 83.57 227.66 103.46 218.10&#xA;  Q 127.11 206.73 151.87 197.55&#xA;  Z"/>
<path fill="#263b56" fill-opacity="0.992" d="&#xA;  M 133.11 228.17&#xA;  Q 122.32 248.08 116.51 269.54&#xA;  C 115.07 274.86 114.20 280.81 113.18 286.48&#xA;  Q 112.71 289.11 112.89 297.25&#xA;  C 95.04 327.02 77.65 361.46 80.69 397.39&#xA;  Q 81.62 408.39 85.09 421.79&#xA;  L 79.71 423.55&#xA;  A 2.75 1.85 -30.5 0 1 79.35 423.65&#xA;  L 70.35 425.64&#xA;  Q 70.31 425.65 70.27 425.66&#xA;  Q 55.54 426.86 48.75 425.72&#xA;  Q 24.87 421.73 10.99 402.03&#xA;  Q 3.78 391.80 1.56 378.94&#xA;  Q 1.07 376.08 0.55 370.32&#xA;  C 0.21 366.46 1.05 362.16 1.04 359.06&#xA;  Q 1.03 356.90 2.11 352.15&#xA;  Q 2.80 349.10 3.58 345.32&#xA;  Q 4.90 338.97 11.05 323.78&#xA;  Q 16.84 309.46 30.11 280.71&#xA;  C 49.44 274.63 67.30 267.62 84.53 256.77&#xA;  C 100.49 246.72 114.74 237.45 133.11 228.17&#xA;  Z"/>
<path fill="#eda44f" fill-opacity="0.992" d="&#xA;  M 315.77 326.23&#xA;  Q 302.21 323.16 294.91 320.08&#xA;  C 270.91 309.97 255.41 301.55 233.10 303.47&#xA;  C 219.88 304.60 206.88 308.37 194.18 311.75&#xA;  Q 209.63 300.19 219.17 294.41&#xA;  Q 226.48 289.98 236.78 288.14&#xA;  C 246.37 286.43 256.71 288.76 264.96 293.06&#xA;  Q 269.88 295.62 276.26 300.27&#xA;  Q 295.43 314.21 315.77 326.23&#xA;  Z"/>
<path fill="#473a57" fill-opacity="0.996" d="&#xA;  M 112.89 297.25&#xA;  Q 112.18 308.42 115.60 318.14&#xA;  Q 118.96 327.72 127.80 333.60&#xA;  Q 127.43 340.65 128.03 345.56&#xA;  C 130.00 361.74 142.02 370.77 156.86 375.15&#xA;  Q 142.52 387.77 127.28 399.03&#xA;  Q 111.48 410.70 94.98 417.97&#xA;  Q 92.75 418.95 85.09 421.79&#xA;  Q 81.62 408.39 80.69 397.39&#xA;  C 77.65 361.46 95.04 327.02 112.89 297.25&#xA;  Z"/>
<path fill="#e88250" fill-opacity="0.992" d="&#xA;  M 315.77 326.23&#xA;  Q 321.08 329.04 326.33 331.86&#xA;  C 336.67 337.40 346.09 341.25 357.58 342.59&#xA;  C 332.53 351.92 299.23 338.52 277.68 325.73&#xA;  Q 271.38 322.00 264.99 318.34&#xA;  Q 259.27 314.08 252.77 311.21&#xA;  C 250.11 310.04 247.56 309.67 245.02 309.10&#xA;  A 5.61 5.53 -42.4 0 0 242.98 309.02&#xA;  Q 237.15 309.88 235.82 310.33&#xA;  Q 231.11 311.92 224.80 316.13&#xA;  C 208.24 322.40 192.97 324.07 175.26 324.28&#xA;  L 194.18 311.75&#xA;  C 206.88 308.37 219.88 304.60 233.10 303.47&#xA;  C 255.41 301.55 270.91 309.97 294.91 320.08&#xA;  Q 302.21 323.16 315.77 326.23&#xA;  Z"/>
<path fill="#e25250" fill-opacity="0.992" d="&#xA;  M 456.70 426.92&#xA;  L 443.07 426.88&#xA;  A 2.06 1.86 -33.9 0 1 442.51 426.80&#xA;  Q 440.53 426.27 435.03 425.94&#xA;  Q 430.69 425.68 419.91 423.33&#xA;  Q 382.06 415.07 349.07 390.28&#xA;  Q 342.26 385.17 332.67 376.94&#xA;  Q 314.03 360.94 275.24 326.34&#xA;  C 272.13 323.57 268.42 320.99 264.99 318.34&#xA;  Q 271.38 322.00 277.68 325.73&#xA;  C 299.23 338.52 332.53 351.92 357.58 342.59&#xA;  C 362.68 343.13 365.19 342.64 369.35 342.13&#xA;  Q 372.52 341.74 374.38 341.12&#xA;  Q 384.56 337.73 390.96 329.43&#xA;  Q 399.66 318.14 399.28 302.94&#xA;  Q 415.02 330.58 431.20 357.68&#xA;  Q 435.15 364.28 440.87 375.57&#xA;  Q 448.22 390.06 449.79 393.85&#xA;  Q 456.34 409.67 456.70 426.92&#xA;  Z"/>
<path fill="#b7554e" fill-opacity="0.992" d="&#xA;  M 224.80 316.13&#xA;  Q 216.27 322.52 208.34 329.33&#xA;  Q 193.50 342.07 178.99 355.24&#xA;  Q 172.52 356.39 164.99 353.44&#xA;  Q 153.34 348.86 142.89 340.05&#xA;  A 1.56 1.56 0.0 0 1 142.47 338.21&#xA;  Q 143.01 337.00 145.68 336.31&#xA;  Q 153.72 335.31 162.04 331.28&#xA;  Q 169.78 327.52 175.26 324.28&#xA;  C 192.97 324.07 208.24 322.40 224.80 316.13&#xA;  Z"/>
<path fill="#842f57" fill-opacity="0.992" d="&#xA;  M 145.68 336.31&#xA;  Q 143.01 337.00 142.47 338.21&#xA;  A 1.56 1.56 0.0 0 0 142.89 340.05&#xA;  Q 153.34 348.86 164.99 353.44&#xA;  Q 172.52 356.39 178.99 355.24&#xA;  L 156.86 375.15&#xA;  C 142.02 370.77 130.00 361.74 128.03 345.56&#xA;  Q 127.43 340.65 127.80 333.60&#xA;  Q 135.77 337.97 145.68 336.31&#xA;  Z"/>
</svg>